<svg xmlns="http://www.w3.org/2000/svg" width="17.1" height="18" viewBox="0 0 17.1 18"><g transform="translate(-2.5 -2)"><g transform="translate(2.5 2)"><path d="M5.971,16.9V14.144a1.277,1.277,0,0,1,1.281-1.272H9.839a1.286,1.286,0,0,1,.906.373,1.267,1.267,0,0,1,.375.9V16.9a1.092,1.092,0,0,0,.32.78,1.108,1.108,0,0,0,.783.324h1.765a3.115,3.115,0,0,0,2.2-.9A3.069,3.069,0,0,0,17.1,14.92V7.08a2.225,2.225,0,0,0-.806-1.712l-6-4.76A2.788,2.788,0,0,0,6.737.672L.87,5.368A2.227,2.227,0,0,0,0,7.08v7.832A3.1,3.1,0,0,0,3.111,18H4.835a1.108,1.108,0,0,0,1.112-1.1Z" transform="translate(0 0)" fill="#325da2"/></g></g></svg>