<svg xmlns="http://www.w3.org/2000/svg" width="16.2" height="18" viewBox="0 0 16.2 18"><g transform="translate(-3 -2)"><g transform="translate(3 2)"><path d="M11.872,0C14.652,0,16.2,1.6,16.2,4.347h0v9.3c0,2.79-1.548,4.356-4.328,4.356H4.329C1.593,18,0,16.434,0,13.644H0v-9.3A3.964,3.964,0,0,1,4.329,0h7.543Zm-7.3,12.366A.706.706,0,0,0,3.9,12.7a.715.715,0,0,0,0,.756.7.7,0,0,0,.675.324h7.056a.711.711,0,0,0,0-1.413H4.572Zm7.056-4.1H4.572a.7.7,0,0,0,0,1.4h7.056a.7.7,0,0,0,0-1.4ZM7.262,4.185H4.572v.009a.7.7,0,1,0,0,1.4h2.69a.707.707,0,0,0,0-1.413Z" fill="#325da2"/></g></g></svg>