<svg xmlns="http://www.w3.org/2000/svg" width="14" height="20" viewBox="0 0 14 20"><g transform="translate(-5 -2)"><g transform="translate(5 2)"><path d="M3.532.937a6.889,6.889,0,0,1,7.035.058A7.331,7.331,0,0,1,14,7.261a10.558,10.558,0,0,1-3.192,6.775,18.727,18.727,0,0,1-3.359,2.82A1.174,1.174,0,0,1,7.041,17a.82.82,0,0,1-.391-.119,18.515,18.515,0,0,1-4.838-4.547A9.279,9.279,0,0,1,0,7.134H0l0-.274A7.15,7.15,0,0,1,3.532.937Zm4.376,4.1a2.346,2.346,0,0,0-2.594.52,2.455,2.455,0,0,0-.519,2.64,2.378,2.378,0,0,0,2.2,1.5,2.339,2.339,0,0,0,1.683-.7,2.455,2.455,0,0,0-.768-3.956Z" transform="translate(0 0)" fill="#3f4a5c"/><ellipse cx="5" cy="1" rx="5" ry="1" transform="translate(2 18)" fill="#3f4a5c" opacity="0.4"/></g></g></svg>