<svg xmlns="http://www.w3.org/2000/svg" width="13.465" height="12.826" viewBox="0 0 13.465 12.826"><g transform="translate(-2 -3)"><g transform="translate(2 3)"><path d="M6.731.683a4.533,4.533,0,0,1,3.717-.47A4.71,4.71,0,0,1,13.206,6.3c-1.144,3.637-6.029,6.35-6.236,6.464a.492.492,0,0,1-.473,0C6.291,12.654,1.442,9.981.26,6.3h0C-.482,3.984.344,1.073,3.011.214A4.426,4.426,0,0,1,6.731.683Zm-3.418.47C1.155,1.849.613,4.17,1.2,6c.922,2.869,4.565,5.189,5.533,5.763.971-.58,4.641-2.925,5.533-5.76.586-1.832.042-4.153-2.119-4.85a3.478,3.478,0,0,0-3.112.521.493.493,0,0,1-.6,0A3.442,3.442,0,0,0,3.313,1.153Zm6.2,1.306a2.319,2.319,0,0,1,1.6,2.022.493.493,0,0,1-.452.531l-.041,0a.493.493,0,0,1-.491-.453A1.331,1.331,0,0,0,9.213,3.4a.493.493,0,1,1,.3-.939Z" transform="translate(0 0)" fill-rule="evenodd"/></g></g></svg>