<svg xmlns="http://www.w3.org/2000/svg" width="16" height="16" viewBox="0 0 16 16"><path d="M0,3.558A3.594,3.594,0,0,1,3.62,0H7.589A3.585,3.585,0,0,1,11.2,3.55v8.893A3.594,3.594,0,0,1,7.58,16H3.612A3.585,3.585,0,0,1,0,12.45V3.558Z" fill="#001231" opacity="0.2"/><path d="M17.183,8.828,14.906,6.5a.589.589,0,0,0-.848,0,.628.628,0,0,0,0,.871l1.247,1.274H7.4a.616.616,0,0,0,0,1.232h7.908l-1.247,1.274a.628.628,0,0,0,0,.871.588.588,0,0,0,.848,0L17.183,9.7a.627.627,0,0,0,0-.873" transform="translate(-1.36 -1.264)" fill="#001231"/></svg>