<svg xmlns="http://www.w3.org/2000/svg" width="17.393" height="15.654" viewBox="0 0 17.393 15.654"><g transform="translate(0)"><g transform="translate(0 0)"><path d="M9.488,6.372a3.413,3.413,0,0,1,3.418,3.414A3.442,3.442,0,0,1,11.9,12.2,3.413,3.413,0,0,1,6.07,9.786a3.361,3.361,0,0,1,.991-2.406A3.41,3.41,0,0,1,9.488,6.372Zm0,1.3a2.106,2.106,0,0,0-1.5.625,2.04,2.04,0,0,0-.609,1.477v.009A2.107,2.107,0,0,0,9.488,11.9,2.12,2.12,0,0,0,11.6,9.786,2.107,2.107,0,0,0,9.488,7.675Zm4.879-1.512a.786.786,0,1,1,0,1.572.786.786,0,0,1,0-1.572Z" transform="translate(-0.791 -0.803)" fill="#ebeeec"/><path d="M13.427,2.815l-.087-.191c-.235-.5-.5-1.068-.67-1.4A2.124,2.124,0,0,0,10.74,0h-4.1A2.111,2.111,0,0,0,4.722,1.225c-.174.347-.47.973-.713,1.485l-.052.1a.171.171,0,0,1-.165.1A3.793,3.793,0,0,0,0,6.706v5.16a3.793,3.793,0,0,0,3.792,3.787H13.6a3.8,3.8,0,0,0,3.792-3.787V6.706A3.8,3.8,0,0,0,13.6,2.919.2.2,0,0,1,13.427,2.815Z" transform="translate(0)" fill="#ebeeec" opacity="0.4"/></g></g></svg>