<svg xmlns="http://www.w3.org/2000/svg" width="20.983" height="20.982" viewBox="0 0 20.983 20.982"><path d="M18.344,11.954a5.7,5.7,0,0,0-1.886.207c-2.552-2.174-9.3-7.913-9.81-8.448a1.017,1.017,0,0,0-.757-.338,1.683,1.683,0,0,0-1.074.484C4.469,4.192,3.152,5.614,3.4,5.877c.757.777.958.933,1.271,1.251.469.479,1.427-.05,1.816.116a.744.744,0,0,1,.525.63,9.426,9.426,0,0,1-.151,1.2,1.262,1.262,0,0,0,.464.958,1.061,1.061,0,0,0,.787.439c.454.01,1.054-.646,1.533-.156s-.313,1.2-.252,1.715a1.9,1.9,0,0,0,1.089,1.216c.308.066,1.1-.59,1.548-.489a1.052,1.052,0,0,1,.555.575c.05.232-.348,1.261-.3,1.493a3.546,3.546,0,0,0,.525.878,5.681,5.681,0,0,0-.474,2.406,6.137,6.137,0,0,0,6.012,6.254,6.129,6.129,0,0,0,6-6.254A6.045,6.045,0,0,0,18.344,11.954Zm1.17,9.174a1.614,1.614,0,1,1,1.614-1.614A1.612,1.612,0,0,1,19.514,21.129Z" transform="translate(-3.373 -3.375)" fill="#3f4a5c"/></svg>