<svg xmlns="http://www.w3.org/2000/svg" width="16.667" height="15" viewBox="0 0 16.667 15"><g transform="translate(-2 -3)"><g transform="translate(2 3)"><path d="M12.449,0a4.214,4.214,0,0,1,4.217,4.208h0v6.583A4.215,4.215,0,0,1,12.449,15H4.217A4.214,4.214,0,0,1,0,10.792H0V4.208A4.209,4.209,0,0,1,4.217,0h8.232Zm.943,4.333a.633.633,0,0,0-.467.167h0l-3.758,3A1.305,1.305,0,0,1,7.5,7.5h0l-3.75-3a.637.637,0,0,0-.893.892h0l.109.108L6.758,8.458a2.624,2.624,0,0,0,3.258,0h0L13.775,5.45l.067-.067a.645.645,0,0,0-.009-.833A.7.7,0,0,0,13.392,4.333Z" fill="#3f4a5c"/></g></g></svg>