<svg xmlns="http://www.w3.org/2000/svg" width="18.406" height="18.406" viewBox="0 0 18.406 18.406"><path d="M11.774,1.928a9.2,9.2,0,1,0,9.2,9.2,9.2,9.2,0,0,0-9.2-9.2Zm0,17.256a8.026,8.026,0,0,1-3.186-.655l4.191-4.715a.575.575,0,0,0,.145-.382V11.706a.575.575,0,0,0-.575-.575C10.318,11.131,8.175,9.02,8.154,9a.575.575,0,0,0-.407-.168h-2.3a.575.575,0,0,0-.575.575v3.451a.575.575,0,0,0,.318.514l1.983.991V17.74A8.058,8.058,0,0,1,4.5,7.68H6.6A.575.575,0,0,0,7,7.511l2.3-2.3A.575.575,0,0,0,9.473,4.8V3.413a8.075,8.075,0,0,1,5.829.478c-.074.063-.147.129-.217.2a3.452,3.452,0,0,0,2.438,5.892q.085,0,.171,0a13.507,13.507,0,0,1-.151,6.693.574.574,0,0,0-.015.094,8.028,8.028,0,0,1-5.754,2.42Z" transform="translate(-2.571 -1.928)" fill="#2c2e35"/></svg>