<svg xmlns="http://www.w3.org/2000/svg" width="17.1" height="18" viewBox="0 0 17.1 18"><g transform="translate(-2.5 -2)"><g transform="translate(2.5 2)"><path d="M9.2,0a1.937,1.937,0,0,1,1.637.936,1.6,1.6,0,0,1,.248.954,1.392,1.392,0,0,0,.212.792A1.776,1.776,0,0,0,13.61,3.3a1.9,1.9,0,0,1,2.585.684h0l.616,1.062A1.824,1.824,0,0,1,16.131,7.6a1.64,1.64,0,0,0-.589,2.25,1.393,1.393,0,0,0,.57.576,2.071,2.071,0,0,1,.745.711,1.816,1.816,0,0,1-.018,1.845h0l-.644,1.08a1.887,1.887,0,0,1-2.6.666,1.467,1.467,0,0,0-.809-.207,1.718,1.718,0,0,0-1.7,1.638A1.861,1.861,0,0,1,9.177,18H7.926a1.863,1.863,0,0,1-1.913-1.845,1.7,1.7,0,0,0-1.692-1.638,1.428,1.428,0,0,0-.809.207,1.945,1.945,0,0,1-.975.27A1.92,1.92,0,0,1,.9,14.058h0l-.635-1.08a1.8,1.8,0,0,1-.018-1.845,1.906,1.906,0,0,1,.736-.711,1.471,1.471,0,0,0,.579-.576,1.651,1.651,0,0,0-.6-2.25A1.84,1.84,0,0,1,.283,5.049h0L.9,3.987A1.912,1.912,0,0,1,3.493,3.3,1.767,1.767,0,0,0,5.8,2.682a1.391,1.391,0,0,0,.212-.792A1.606,1.606,0,0,1,6.271.936,1.975,1.975,0,0,1,7.9,0H9.2ZM8.561,6.462a2.543,2.543,0,1,0,0,5.085,2.543,2.543,0,1,0,0-5.085Z" transform="translate(0)" fill="#325da2"/></g></g></svg>