<svg xmlns="http://www.w3.org/2000/svg" width="17" height="20" viewBox="0 0 17 20"><g transform="translate(-3.5 -2)"><g transform="translate(3.5 2)"><path d="M9.071.1l6.637,2.227a1.809,1.809,0,0,1,1.249,1.7L17,10.663a8.245,8.245,0,0,1-2.065,5.5A8.441,8.441,0,0,1,12.513,18L8.945,19.91a.782.782,0,0,1-.358.09.765.765,0,0,1-.358-.086l-3.6-1.863a8.464,8.464,0,0,1-2.446-1.817A8.248,8.248,0,0,1,.042,10.76L0,4.124A1.812,1.812,0,0,1,1.228,2.413L7.841.106A1.889,1.889,0,0,1,9.071.1Zm3.174,7.119a.77.77,0,0,0-1.068.006h0l-3.369,3.32L6.429,9.219a.77.77,0,0,0-1.068.007.721.721,0,0,0,.007,1.039h0l1.916,1.844A.77.77,0,0,0,8.352,12.1h0l3.9-3.844A.722.722,0,0,0,12.245,7.219Z" fill="#3f4a5c"/></g></g></svg>