<svg xmlns="http://www.w3.org/2000/svg" width="17" height="20" viewBox="0 0 17 20"><g transform="translate(-3.5 -2)"><g transform="translate(3.5 2)"><path d="M9.752,0a.457.457,0,0,1,.455.46h0V3.68a3.349,3.349,0,0,0,3.307,3.34c.752,0,1.346.01,1.8.01h.169c.3,0,.714-.009,1.069-.009A.446.446,0,0,1,17,7.47h0v8.04A4.468,4.468,0,0,1,12.554,20H4.673A4.7,4.7,0,0,1,0,15.29H0V4.51A4.5,4.5,0,0,1,4.465,0H9.752Zm1.059,12.9H5.426a.743.743,0,0,0-.743.74.752.752,0,0,0,.743.75h5.386a.752.752,0,0,0,.743-.75.743.743,0,0,0-.743-.74Zm-2.04-5H5.426a.752.752,0,0,0-.743.75.743.743,0,0,0,.743.74H8.772a.743.743,0,0,0,.743-.74.752.752,0,0,0-.743-.75ZM11.651.906a.473.473,0,0,1,.814-.334l3.986,4.187a.477.477,0,0,1-.34.807c-.814,0-1.773,0-2.463-.007a2.017,2.017,0,0,1-2-2.017h0Z" fill="#3f4a5c"/></g></g></svg>