<svg xmlns="http://www.w3.org/2000/svg" width="18.312" height="24.014" viewBox="0 0 18.312 24.014"><path d="M5.192,11.126H6.936V22.333H9.552V12.727h2.616v9.606h2.616V12.727H17.4v9.606h2.616V11.126h1.743a.839.839,0,0,0,.873-.8.779.779,0,0,0-.364-.647l0,0-.013-.008-.023-.014L13.911,5.349V4.087c1.537.706,2.8-.51,4.8.221V1.521c-1.994-.731-3.259.484-4.8-.222V1.12a.437.437,0,0,0-.871,0V5.349L4.718,9.655,4.7,9.668l-.013.009v0a.78.78,0,0,0-.362.647.838.838,0,0,0,.872.8Zm.872,12.008-1.744,1.6H22.632l-1.745-1.6Z" transform="translate(-4.32 -0.72)" fill="#2c2e35"/></svg>